<svg id="Layer_1" data-name="Layer 1" xmlns="http://www.w3.org/2000/svg" viewBox="0 0 235.93 110.52"><defs><style>.cls-1{fill:#00aeef;}.cls-2{fill:#fff;}</style></defs><rect class="cls-1" x="59.18" y="40.89" width="130.77" height="28.74"/><polygon class="cls-1" points="54.3 69.63 54.3 40.89 33.34 55.26 54.3 69.63"/><path class="cls-2" d="M75.46,55.11v5H73.24v-8.4h2.34l3.23,4.81V51.69H81v8.4H78.81Z"/><path class="cls-2" d="M82.72,60.09v-8.4h6.35v2H85v1.2h3.47v1.86H85v1.38h4.19v2Z"/><path class="cls-2" d="M89.68,51.69H92.2l1.47,4.92,1.41-4.92h1.61l1.41,4.92,1.47-4.92H102l-2.82,8.4h-2l-1.35-4.61-1.34,4.61h-2Z"/><path class="cls-2" d="M106.75,51.69c1.66,0,2.72.89,2.72,2.19a2.08,2.08,0,0,1-1.09,1.83,2.12,2.12,0,0,1,1.45,2c0,1.33-1.16,2.35-2.85,2.35h-4.16v-8.4Zm-.51,3.3c.63,0,1-.36,1-.78s-.32-.78-1-.78H105.1V55Zm-1.14,1.62v1.74h1.44a.9.9,0,0,0,1-.88c0-.46-.34-.86-1-.86Z"/><path class="cls-2" d="M115.21,51.57a4.25,4.25,0,0,1,4.4,4.28,4.36,4.36,0,0,1-4.47,4.36,4.25,4.25,0,0,1-4.4-4.28A4.36,4.36,0,0,1,115.21,51.57Zm0,6.54A2.22,2.22,0,1,0,113,55.89,2.13,2.13,0,0,0,115.17,58.11Z"/><path class="cls-2" d="M128.41,58.65A4.11,4.11,0,0,1,125,60.21a4.25,4.25,0,0,1-4.4-4.28,4.36,4.36,0,0,1,4.47-4.36,4,4,0,0,1,3.3,1.41l-1.69,1.46a1.94,1.94,0,0,0-1.65-.77,2.22,2.22,0,1,0,1.78,3.54Z"/><path class="cls-2" d="M133.25,51.57a4.25,4.25,0,0,1,4.4,4.28,4.37,4.37,0,0,1-4.48,4.36,4.25,4.25,0,0,1-4.4-4.28A4.37,4.37,0,0,1,133.25,51.57Zm0,6.54a2.22,2.22,0,1,0-2.16-2.22A2.13,2.13,0,0,0,133.21,58.11Z"/><path class="cls-2" d="M142.48,60.09v-8.4h2.28v6.36h3.83v2Z"/><path class="cls-2" d="M157.71,60.09h-2.52l-.49-1.44h-3l-.49,1.44h-2.4l3.3-8.4h2.27Zm-4.49-5.77-.88,2.53h1.74Z"/><path class="cls-2" d="M162.49,51.69c1.66,0,2.72.89,2.72,2.19a2.08,2.08,0,0,1-1.09,1.83,2.12,2.12,0,0,1,1.45,2c0,1.33-1.16,2.35-2.85,2.35h-4.16v-8.4ZM162,55c.63,0,1-.36,1-.78s-.32-.78-1-.78h-1.14V55Zm-1.14,1.62v1.74h1.43a.89.89,0,0,0,1-.88c0-.46-.33-.86-1-.86Z"/><path class="cls-2" d="M170.27,54.94c1.1.48,2.32,1.24,2.32,2.65s-1.27,2.62-3.15,2.62a4.6,4.6,0,0,1-3.32-1.32l1.32-1.44a3.41,3.41,0,0,0,2.09.92c.42,0,.72-.21.72-.53s-.33-.68-1.75-1.29a2.67,2.67,0,0,1-1.9-2.48c0-1.45,1.21-2.5,3-2.5a4.32,4.32,0,0,1,3,1.14l-1.32,1.44a2.45,2.45,0,0,0-1.62-.74c-.46,0-.71.23-.71.48S169.18,54.47,170.27,54.94Z"/></svg>