<svg id="Layer_1" data-name="Layer 1" xmlns="http://www.w3.org/2000/svg" viewBox="0 0 235.93 110.52"><defs><style>.cls-1{fill:#91489b;}.cls-2{fill:#fff;}.cls-3{fill:#231f20;stroke:#fff;stroke-miterlimit:10;}</style></defs><polygon class="cls-1" points="22.61 73.31 22.61 44.57 1.66 58.94 22.61 73.31"/><rect class="cls-1" x="27.49" y="31.95" width="203.52" height="54.81"/><path class="cls-2" d="M84.06,48.09a4.11,4.11,0,0,1-3.43,1.56,4.25,4.25,0,0,1-4.4-4.28A4.37,4.37,0,0,1,80.71,41,4,4,0,0,1,84,42.42l-1.69,1.46a1.94,1.94,0,0,0-1.64-.76,2.22,2.22,0,1,0,1.78,3.53Z"/><path class="cls-2" d="M88.9,41a4.24,4.24,0,0,1,4.4,4.28,4.36,4.36,0,0,1-4.47,4.35,4.25,4.25,0,0,1-4.4-4.28A4.36,4.36,0,0,1,88.9,41Zm0,6.53a2.22,2.22,0,1,0-2.16-2.22A2.13,2.13,0,0,0,88.87,47.55Z"/><path class="cls-2" d="M94.63,41.14h3.15c2.71,0,4.64,1.77,4.64,4.16s-2,4.23-4.71,4.23H94.63Zm2.28,2v4.43h.9a2.22,2.22,0,1,0,0-4.43Z"/><path class="cls-2" d="M103.75,49.53V41.14h6.36v2H106v1.19h3.48v1.86H106v1.38h4.2v2Z"/><path class="cls-2" d="M118.48,44.39c1.11.48,2.33,1.23,2.33,2.65s-1.27,2.61-3.15,2.61a4.63,4.63,0,0,1-3.33-1.32l1.32-1.44a3.44,3.44,0,0,0,2.1.93c.42,0,.72-.22.72-.53s-.34-.69-1.75-1.3a2.67,2.67,0,0,1-1.91-2.48c0-1.45,1.21-2.49,3-2.49a4.32,4.32,0,0,1,3,1.14l-1.32,1.43a2.45,2.45,0,0,0-1.62-.74c-.47,0-.72.23-.72.48S117.39,43.92,118.48,44.39Z"/><path class="cls-2" d="M129.6,48.09a4.11,4.11,0,0,1-3.43,1.56,4.25,4.25,0,0,1-4.4-4.28A4.37,4.37,0,0,1,126.25,41a4,4,0,0,1,3.29,1.4l-1.69,1.46a1.94,1.94,0,0,0-1.64-.76A2.22,2.22,0,1,0,128,46.65Z"/><path class="cls-2" d="M136,46.23h-3v3.3h-2.28V41.14H133v3h3v-3h2.28v8.39H136Z"/><path class="cls-2" d="M144,41a4.24,4.24,0,0,1,4.4,4.28A4.36,4.36,0,0,1,144,49.65a4.25,4.25,0,0,1-4.4-4.28A4.36,4.36,0,0,1,144,41Zm0,6.53a2.22,2.22,0,1,0-2.16-2.22A2.12,2.12,0,0,0,144,47.55Z"/><path class="cls-2" d="M153.88,41a4.24,4.24,0,0,1,4.4,4.28,4.36,4.36,0,0,1-4.47,4.35,4.25,4.25,0,0,1-4.4-4.28A4.36,4.36,0,0,1,153.88,41Zm0,6.53a2.22,2.22,0,1,0-2.16-2.22A2.12,2.12,0,0,0,153.85,47.55Z"/><path class="cls-2" d="M159.61,49.53V41.14h2.28v6.35h3.83v2Z"/><path class="cls-2" d="M170.19,41.14h3.88A2.83,2.83,0,0,1,177.21,44a2.72,2.72,0,0,1-1.61,2.56l2,3h-2.64l-1.64-2.7h-.82v2.7h-2.28Zm2.28,1.91v2h1.32a1,1,0,1,0,0-2Z"/><path class="cls-2" d="M182.7,41a4.24,4.24,0,0,1,4.41,4.28,4.37,4.37,0,0,1-4.48,4.35,4.25,4.25,0,0,1-4.4-4.28A4.36,4.36,0,0,1,182.7,41Zm0,6.53a2.22,2.22,0,1,0-2.16-2.22A2.13,2.13,0,0,0,182.67,47.55Z"/><path class="cls-2" d="M192.54,41A4.24,4.24,0,0,1,197,45.3a4.37,4.37,0,0,1-4.48,4.35,4.25,4.25,0,0,1-4.4-4.28A4.36,4.36,0,0,1,192.54,41Zm0,6.53a2.22,2.22,0,1,0-2.16-2.22A2.13,2.13,0,0,0,192.51,47.55Z"/><path class="cls-2" d="M200.47,45v4.57h-2.2V41.14h2.34l2.22,4.39,2.22-4.39h2.22v8.39h-2.2V45l-1.7,3.37h-1.2Z"/><path class="cls-2" d="M44.61,62.25H41V60.51l3.54-5h2.1v5h1.2v1.68h-1.2v1.68h-2Zm0-1.68V58l-1.82,2.55Z"/><path class="cls-2" d="M51.15,55.54H53v8.39H50.79V58l-1.74,1.1L48,57.7Z"/><path class="cls-2" d="M54.93,55.54h5.34V57.4H56.85v1.23A2.14,2.14,0,0,1,58,58.29,2.59,2.59,0,0,1,60.69,61a3,3,0,0,1-3.18,3.06,3.34,3.34,0,0,1-2.94-1.68l1.62-1.14a1.51,1.51,0,0,0,1.29.84,1,1,0,0,0,1.05-1,.88.88,0,0,0-.92-.9.85.85,0,0,0-.82.48H54.93Z"/><path class="cls-2" d="M78.37,61v2.94H76.09V55.54h6.24v2h-4v1.55h3.36V61Z"/><path class="cls-2" d="M87.52,55.42a4.25,4.25,0,0,1,4.4,4.28,4.36,4.36,0,0,1-4.47,4.35,4.25,4.25,0,0,1-4.4-4.28A4.36,4.36,0,0,1,87.52,55.42Zm0,6.53a2.22,2.22,0,1,0-2.16-2.22A2.13,2.13,0,0,0,87.49,62Z"/><path class="cls-2" d="M100.56,55.54v4.88a3.49,3.49,0,0,1-3.75,3.63,3.38,3.38,0,0,1-3.68-3.56v-5h2.31v4.85a1.44,1.44,0,1,0,2.88,0V55.54Z"/><path class="cls-2" d="M104.35,59v5h-2.22V55.54h2.34l3.23,4.81V55.54h2.22v8.39H107.7Z"/><path class="cls-2" d="M111.61,55.54h3.15c2.71,0,4.64,1.77,4.64,4.16s-2,4.23-4.71,4.23h-3.08Zm2.28,2V62h.9a2.22,2.22,0,1,0,0-4.43Z"/><path class="cls-2" d="M120.73,55.54h3.87a2.83,2.83,0,0,1,3.14,2.81,2.73,2.73,0,0,1-1.6,2.56l2,3h-2.63l-1.65-2.7H123v2.7h-2.28ZM123,57.45v2h1.32a1,1,0,1,0,0-2Z"/><path class="cls-2" d="M130.93,60.93l-3.12-5.39h2.64l1.68,3.21,1.68-3.21h2.51l-3.11,5.39v3h-2.28Z"/><path class="cls-2" d="M84.06,76.89a4.11,4.11,0,0,1-3.43,1.56,4.25,4.25,0,0,1-4.4-4.28,4.37,4.37,0,0,1,4.48-4.35A4,4,0,0,1,84,71.22l-1.69,1.46a1.93,1.93,0,0,0-1.64-.77,2.22,2.22,0,0,0,0,4.44,2.11,2.11,0,0,0,1.78-.9Z"/><path class="cls-2" d="M93.18,78.33H90.66l-.49-1.44h-3l-.49,1.44h-2.4l3.3-8.39h2.28Zm-4.49-5.77-.88,2.53h1.74Z"/><path class="cls-2" d="M96.31,75.39v2.94H94V69.94h6.23v2h-4v1.56h3.35v1.92Z"/><path class="cls-2" d="M101.35,78.33V69.94h6.35v2h-4.07v1.2h3.48V75h-3.48v1.38h4.2v2Z"/><path class="cls-2" d="M116.79,78l-1,1.5a5.73,5.73,0,0,1-3.41-5.36,5.88,5.88,0,0,1,3.41-5.43l1,1.5a4.47,4.47,0,0,0,0,7.79Z"/><path class="cls-2" d="M117,69.94h2.58l1.86,5.42,1.86-5.42h2.46l-3.24,8.39h-2.28Z"/><path class="cls-2" d="M126.69,69.94H129v8.39h-2.34Z"/><path class="cls-2" d="M130.77,69.94h3.88a2.83,2.83,0,0,1,3.14,2.81,2.72,2.72,0,0,1-1.61,2.56l2,3h-2.64l-1.64-2.7h-.82v2.7h-2.28Zm2.28,1.91v2h1.32a1,1,0,1,0,0-2Z"/><path class="cls-2" d="M143,71.91v6.42h-2.28V71.91h-2.28v-2h6.84v2Z"/><path class="cls-2" d="M153.57,69.94v4.88a3.5,3.5,0,0,1-3.76,3.63,3.38,3.38,0,0,1-3.68-3.56v-5h2.32v4.85a1.44,1.44,0,1,0,2.88,0V69.94Z"/><path class="cls-2" d="M162.81,78.33h-2.52l-.49-1.44h-3l-.49,1.44h-2.4l3.3-8.39h2.28Zm-4.5-5.77-.88,2.53h1.74Z"/><path class="cls-2" d="M163.65,78.33V69.94h2.28v6.35h3.84v2Z"/><path class="cls-2" d="M174.24,69.94h3.87a2.83,2.83,0,0,1,3.14,2.81,2.72,2.72,0,0,1-1.61,2.56l2,3H179l-1.64-2.7h-.82v2.7h-2.27Zm2.27,1.91v2h1.32a1,1,0,1,0,0-2Z"/><path class="cls-2" d="M186.75,69.82a4.24,4.24,0,0,1,4.4,4.28,4.36,4.36,0,0,1-4.47,4.35,4.25,4.25,0,0,1-4.4-4.28A4.36,4.36,0,0,1,186.75,69.82Zm0,6.53a2.22,2.22,0,1,0-2.16-2.22A2.13,2.13,0,0,0,186.71,76.35Z"/><path class="cls-2" d="M196.59,69.82A4.24,4.24,0,0,1,201,74.1a4.36,4.36,0,0,1-4.47,4.35,4.25,4.25,0,0,1-4.4-4.28A4.36,4.36,0,0,1,196.59,69.82Zm0,6.53a2.22,2.22,0,1,0-2.16-2.22A2.13,2.13,0,0,0,196.55,76.35Z"/><path class="cls-2" d="M204.51,73.76v4.57h-2.19V69.94h2.33l2.22,4.38,2.22-4.38h2.22v8.39h-2.19V73.76l-1.71,3.37h-1.2Z"/><path class="cls-2" d="M212.4,70.24l1-1.5a5.72,5.72,0,0,1,3.4,5.36,5.88,5.88,0,0,1-3.4,5.43l-1-1.5a4.48,4.48,0,0,0,0-7.79Z"/><line class="cls-3" x1="67.52" y1="40.22" x2="67.52" y2="77.66"/></svg>