<svg id="Layer_1" data-name="Layer 1" xmlns="http://www.w3.org/2000/svg" viewBox="0 0 235.93 110.52"><defs><style>.cls-1{fill:#00aeef;}.cls-2{fill:#fff;}.cls-3{fill:#231f20;stroke:#fff;stroke-miterlimit:10;}</style></defs><rect class="cls-1" x="9.02" y="27.85" width="195.72" height="54.81"/><polygon class="cls-1" points="209.12 40.89 209.12 69.63 230.08 55.26 209.12 40.89"/><path class="cls-2" d="M73.56,43.65a4.12,4.12,0,0,1-3.44,1.56,4.25,4.25,0,0,1-4.4-4.28,4.38,4.38,0,0,1,4.48-4.36A4,4,0,0,1,73.5,38l-1.7,1.46a1.91,1.91,0,0,0-1.64-.77,2.22,2.22,0,0,0,0,4.44,2.11,2.11,0,0,0,1.78-.9Z"/><path class="cls-2" d="M78.39,36.57a4.25,4.25,0,0,1,4.4,4.29,4.36,4.36,0,0,1-4.47,4.35,4.25,4.25,0,0,1-4.4-4.28A4.37,4.37,0,0,1,78.39,36.57Zm0,6.54a2.22,2.22,0,1,0-2.16-2.22A2.13,2.13,0,0,0,78.36,43.11Z"/><path class="cls-2" d="M91.43,36.69v4.89a3.49,3.49,0,0,1-3.75,3.63A3.38,3.38,0,0,1,84,41.65v-5h2.31v4.86a1.44,1.44,0,1,0,2.88,0V36.69Z"/><path class="cls-2" d="M93,36.69h3.87A2.84,2.84,0,0,1,100,39.51a2.73,2.73,0,0,1-1.6,2.56l2,3H97.74l-1.65-2.7h-.81v2.7H93Zm2.28,1.92v2H96.6a1,1,0,1,0,0-2Z"/><path class="cls-2" d="M105.24,38.67v6.42H103V38.67h-2.28v-2h6.84v2Z"/><path class="cls-2" d="M111,42.09l-3.12-5.4h2.64l1.68,3.22,1.68-3.22h2.52l-3.12,5.4v3H111Z"/><path class="cls-2" d="M123.83,45.09h-2.51l-.5-1.44h-3l-.49,1.44H115l3.3-8.4h2.28Zm-4.49-5.77-.88,2.53h1.74Z"/><path class="cls-2" d="M124.68,36.69h3.87a2.84,2.84,0,0,1,3.15,2.82,2.73,2.73,0,0,1-1.61,2.56l2,3h-2.64l-1.65-2.7H127v2.7h-2.28ZM127,38.61v2h1.32a1,1,0,1,0,0-2Z"/><path class="cls-2" d="M133.08,36.69h3.15c2.71,0,4.64,1.78,4.64,4.17s-2,4.23-4.71,4.23h-3.08Zm2.28,2v4.44h.9a2.22,2.22,0,1,0,0-4.44Z"/><path class="cls-2" d="M30.55,58.05a4.11,4.11,0,0,1-3.43,1.56,4.25,4.25,0,0,1-4.4-4.28A4.36,4.36,0,0,1,27.19,51a4,4,0,0,1,3.3,1.41L28.8,53.84a1.94,1.94,0,0,0-1.65-.77,2.22,2.22,0,1,0,1.78,3.54Z"/><path class="cls-2" d="M35.06,54.34c1.1.48,2.33,1.24,2.33,2.65s-1.27,2.62-3.16,2.62a4.62,4.62,0,0,1-3.32-1.32l1.32-1.44a3.46,3.46,0,0,0,2.1.92c.42,0,.72-.21.72-.52s-.34-.69-1.75-1.3a2.68,2.68,0,0,1-1.91-2.48c0-1.45,1.21-2.5,3-2.5a4.32,4.32,0,0,1,3,1.14l-1.32,1.44a2.45,2.45,0,0,0-1.62-.74c-.47,0-.72.23-.72.48S34,53.88,35.06,54.34Z"/><path class="cls-2" d="M38.71,51.09h3.76c2,0,3.26,1.18,3.26,2.94a3,3,0,0,1-3.34,3H41v2.46H38.71ZM41,55.17h1.26a1.09,1.09,0,1,0,0-2.16H41Z"/><path class="cls-2" d="M50.42,54.34c1.11.48,2.33,1.24,2.33,2.65s-1.27,2.62-3.16,2.62a4.62,4.62,0,0,1-3.32-1.32l1.32-1.44a3.46,3.46,0,0,0,2.1.92c.42,0,.72-.21.72-.52s-.34-.69-1.75-1.3a2.68,2.68,0,0,1-1.91-2.48c0-1.45,1.21-2.5,3-2.5a4.32,4.32,0,0,1,3,1.14l-1.32,1.44a2.45,2.45,0,0,0-1.62-.74c-.47,0-.72.23-.72.48S49.33,53.88,50.42,54.34Z"/><path class="cls-2" d="M69.92,53.07v6.42H67.64V53.07H65.36v-2H72.2v2Z"/><path class="cls-2" d="M78.44,56.19h-3v3.3H73.16v-8.4h2.28v3.06h3V51.09h2.28v8.4H78.44Z"/><path class="cls-2" d="M82.4,59.49v-8.4h6.36v2H84.68v1.2h3.48v1.86H84.68v1.38h4.2v2Z"/><path class="cls-2" d="M98.24,59.49H95.72l-.49-1.44h-3l-.49,1.44h-2.4l3.3-8.4h2.28Zm-4.5-5.77-.87,2.53h1.74Z"/><path class="cls-2" d="M101.84,53.07v6.42H99.56V53.07H97.28v-2h6.84v2Z"/><path class="cls-2" d="M105.08,51.09H109a2.84,2.84,0,0,1,3.14,2.82,2.72,2.72,0,0,1-1.61,2.56l2,3h-2.64l-1.64-2.7h-.82v2.7h-2.28ZM107.36,53v2h1.32a1,1,0,1,0,0-2Z"/><path class="cls-2" d="M113.48,59.49v-8.4h6.36v2h-4.08v1.2h3.48v1.86h-3.48v1.38H120v2Z"/><path class="cls-2" d="M73.56,72.45A4.12,4.12,0,0,1,70.12,74a4.25,4.25,0,0,1-4.4-4.28,4.38,4.38,0,0,1,4.48-4.36,4,4,0,0,1,3.3,1.41l-1.7,1.46a1.91,1.91,0,0,0-1.64-.77,2.22,2.22,0,0,0,0,4.44,2.11,2.11,0,0,0,1.78-.9Z"/><path class="cls-2" d="M78.39,65.37a4.25,4.25,0,0,1,4.4,4.29A4.36,4.36,0,0,1,78.32,74a4.25,4.25,0,0,1-4.4-4.28A4.37,4.37,0,0,1,78.39,65.37Zm0,6.54a2.22,2.22,0,1,0-2.16-2.22A2.13,2.13,0,0,0,78.36,71.91Z"/><path class="cls-2" d="M86.34,68.91v5H84.12v-8.4h2.34L89.7,70.3V65.49h2.21v8.4H89.7Z"/><path class="cls-2" d="M95.88,71v2.94H93.6v-8.4h6.23v2h-4V69h3.36V71Z"/><path class="cls-2" d="M100.92,73.89v-8.4h6.36v2H103.2v1.2h3.48v1.86H103.2v1.38h4.2v2Z"/><path class="cls-2" d="M108.72,65.49h3.87a2.84,2.84,0,0,1,3.14,2.82,2.73,2.73,0,0,1-1.6,2.56l2,3h-2.63l-1.65-2.7H111v2.7h-2.28ZM111,67.41v2h1.32a1,1,0,1,0,0-2Z"/><path class="cls-2" d="M117.12,73.89v-8.4h6.36v2H119.4v1.2h3.48v1.86H119.4v1.38h4.2v2Z"/><path class="cls-2" d="M127.14,68.91v5h-2.22v-8.4h2.34l3.24,4.81V65.49h2.21v8.4H130.5Z"/><path class="cls-2" d="M141.87,72.45A4.11,4.11,0,0,1,138.44,74a4.25,4.25,0,0,1-4.4-4.28,4.37,4.37,0,0,1,4.47-4.36,4,4,0,0,1,3.3,1.41l-1.69,1.46a1.93,1.93,0,0,0-1.64-.77,2.22,2.22,0,0,0,0,4.44,2.1,2.1,0,0,0,1.77-.9Z"/><path class="cls-2" d="M143,73.89v-8.4h6.36v2h-4.08v1.2h3.48v1.86h-3.48v1.38h4.2v2Z"/><path class="cls-2" d="M154.26,65.49h3.87a2.84,2.84,0,0,1,3.14,2.82,2.73,2.73,0,0,1-1.6,2.56l2,3H159l-1.65-2.7h-.81v2.7h-2.28Zm2.28,1.92v2h1.32a1,1,0,1,0,0-2Z"/><path class="cls-2" d="M166.77,65.37a4.25,4.25,0,0,1,4.4,4.29A4.36,4.36,0,0,1,166.7,74a4.25,4.25,0,0,1-4.4-4.28A4.37,4.37,0,0,1,166.77,65.37Zm0,6.54a2.22,2.22,0,1,0-2.16-2.22A2.12,2.12,0,0,0,166.74,71.91Z"/><path class="cls-2" d="M176.61,65.37a4.25,4.25,0,0,1,4.4,4.29A4.36,4.36,0,0,1,176.54,74a4.25,4.25,0,0,1-4.4-4.28A4.37,4.37,0,0,1,176.61,65.37Zm0,6.54a2.22,2.22,0,1,0-2.16-2.22A2.13,2.13,0,0,0,176.58,71.91Z"/><path class="cls-2" d="M184.53,69.32v4.57h-2.19v-8.4h2.34l2.22,4.39,2.21-4.39h2.22v8.4h-2.19V69.32l-1.71,3.37h-1.19Z"/><line class="cls-3" x1="58.63" y1="36.57" x2="58.63" y2="74.01"/></svg>