<svg id="Layer_1" data-name="Layer 1" xmlns="http://www.w3.org/2000/svg" viewBox="0 0 235.93 110.52"><defs><style>.cls-1{fill:#f8d806;}.cls-2{fill:#231f20;}.cls-3{fill:none;stroke:#231f20;stroke-miterlimit:10;stroke-width:0.79px;}</style></defs><rect class="cls-1" x="12.42" y="32.72" width="189.28" height="45.07"/><polygon class="cls-1" points="206.46 40.89 206.46 69.63 227.42 55.26 206.46 40.89"/><path class="cls-2" d="M124.65,42.07H130v1.86h-3.42v1.24a2.06,2.06,0,0,1,1.18-.34,2.59,2.59,0,0,1,2.66,2.7,3,3,0,0,1-3.18,3.06,3.34,3.34,0,0,1-2.94-1.68l1.62-1.14a1.49,1.49,0,0,0,1.28.84,1,1,0,0,0,1.06-1,.88.88,0,0,0-.92-.9.84.84,0,0,0-.82.48h-1.86Z"/><path class="cls-2" d="M138.73,45.32c1.1.48,2.32,1.24,2.32,2.65s-1.27,2.62-3.15,2.62a4.6,4.6,0,0,1-3.32-1.32l1.32-1.44a3.41,3.41,0,0,0,2.09.92c.42,0,.72-.21.72-.53s-.33-.68-1.75-1.29a2.67,2.67,0,0,1-1.9-2.48c0-1.45,1.21-2.5,3-2.5a4.32,4.32,0,0,1,3,1.14l-1.32,1.44a2.45,2.45,0,0,0-1.62-.74c-.46,0-.72.23-.72.48S137.63,44.85,138.73,45.32Z"/><path class="cls-2" d="M142.38,50.47v-8.4h6.35v2h-4.08v1.2h3.48v1.86h-3.48v1.38h4.2v2Z"/><path class="cls-2" d="M158.21,50.47h-2.52L155.2,49h-3l-.5,1.44h-2.39l3.29-8.4h2.28Zm-4.5-5.77-.87,2.53h1.74Z"/><path class="cls-2" d="M162.49,45.32c1.1.48,2.32,1.24,2.32,2.65s-1.27,2.62-3.15,2.62a4.6,4.6,0,0,1-3.32-1.32l1.32-1.44a3.41,3.41,0,0,0,2.09.92c.42,0,.72-.21.72-.53s-.33-.68-1.75-1.29a2.67,2.67,0,0,1-1.9-2.48c0-1.45,1.21-2.5,3-2.5a4.32,4.32,0,0,1,3,1.14l-1.32,1.44a2.45,2.45,0,0,0-1.62-.74c-.46,0-.72.23-.72.48S161.39,44.85,162.49,45.32Z"/><path class="cls-2" d="M170.25,42a4.25,4.25,0,0,1,4.4,4.28,4.36,4.36,0,0,1-4.47,4.36,4.25,4.25,0,0,1-4.4-4.28A4.36,4.36,0,0,1,170.25,42Zm0,6.54a2.22,2.22,0,1,0-2.16-2.22A2.13,2.13,0,0,0,170.21,48.49Z"/><path class="cls-2" d="M178.19,45.49v5H176v-8.4h2.33l3.24,4.81V42.07h2.22v8.4h-2.22Z"/><path class="cls-2" d="M188.88,45.32c1.11.48,2.33,1.24,2.33,2.65s-1.27,2.62-3.15,2.62a4.6,4.6,0,0,1-3.32-1.32l1.31-1.44a3.46,3.46,0,0,0,2.1.92c.42,0,.72-.21.72-.53s-.33-.68-1.75-1.29a2.68,2.68,0,0,1-1.91-2.48c0-1.45,1.22-2.5,3-2.5a4.32,4.32,0,0,1,3,1.14l-1.32,1.44a2.45,2.45,0,0,0-1.62-.74c-.46,0-.72.23-.72.48S187.79,44.85,188.88,45.32Z"/><path class="cls-2" d="M124.59,56.47h3.76c2,0,3.26,1.18,3.26,2.94a3,3,0,0,1-3.34,3h-1.4v2.46h-2.28Zm2.28,4.08h1.26a1.09,1.09,0,1,0,0-2.16h-1.26Z"/><path class="cls-2" d="M140.07,64.87h-2.52l-.49-1.44h-3l-.49,1.44h-2.4l3.3-8.4h2.28Zm-4.5-5.77-.88,2.53h1.74Z"/><path class="cls-2" d="M139,56.47h2.58l1.86,5.42,1.86-5.42h2.46l-3.24,8.4h-2.28Z"/><path class="cls-2" d="M148.65,56.47H151v8.4h-2.34Z"/><path class="cls-2" d="M152.73,64.87v-8.4H155v6.36h3.84v2Z"/><path class="cls-2" d="M159.87,56.47h2.34v8.4h-2.34Z"/><path class="cls-2" d="M168.06,56.35a4.25,4.25,0,0,1,4.41,4.28A4.37,4.37,0,0,1,168,65a4.25,4.25,0,0,1-4.4-4.29A4.36,4.36,0,0,1,168.06,56.35Zm0,6.54a2.22,2.22,0,1,0-2.16-2.22A2.13,2.13,0,0,0,168,62.89Z"/><path class="cls-2" d="M176,59.89v5h-2.22v-8.4h2.34l3.24,4.81V56.47h2.22v8.4h-2.22Z"/><line class="cls-3" x1="114.73" y1="41.38" x2="114.73" y2="64.99"/><path class="cls-2" d="M27,50.9h3.75c2,0,3.27,1.17,3.27,2.94a3,3,0,0,1-3.34,3h-1.4v2.45H27ZM29.24,55H30.5a1.09,1.09,0,1,0,0-2.16H29.24Z"/><path class="cls-2" d="M42.44,59.29H39.92l-.49-1.43h-3L36,59.29h-2.4l3.3-8.39h2.28Zm-4.5-5.76-.88,2.53H38.8Z"/><path class="cls-2" d="M43.28,50.9h3.88a2.84,2.84,0,0,1,3.14,2.82,2.71,2.71,0,0,1-1.61,2.55l2,3H48L46.37,56.6h-.81v2.69H43.28Zm2.28,1.92v2h1.32a1,1,0,1,0,0-2Z"/><path class="cls-2" d="M51.68,59.29V50.9H54v6.35H57.8v2Z"/><path class="cls-2" d="M62.63,50.78A4.25,4.25,0,0,1,67,55.06a4.37,4.37,0,0,1-4.48,4.35,4.25,4.25,0,0,1-4.4-4.28A4.36,4.36,0,0,1,62.63,50.78Zm0,6.54a2.22,2.22,0,1,0-2.16-2.22A2.13,2.13,0,0,0,62.6,57.32Z"/><path class="cls-2" d="M68.36,50.9h3.88a2.84,2.84,0,0,1,3.14,2.82,2.71,2.71,0,0,1-1.61,2.55l2,3H73.1L71.45,56.6h-.81v2.69H68.36Zm2.28,1.92v2H72a1,1,0,1,0,0-2Z"/><path class="cls-2" d="M87.74,57.86a4.12,4.12,0,0,1-3.43,1.55,4.25,4.25,0,0,1-4.4-4.28,4.36,4.36,0,0,1,4.47-4.35,4.06,4.06,0,0,1,3.3,1.4L86,53.65a1.94,1.94,0,0,0-1.65-.77,2.22,2.22,0,0,0,0,4.44,2.11,2.11,0,0,0,1.78-.9Z"/><path class="cls-2" d="M88.88,50.9h2.34v8.39H88.88Z"/><path class="cls-2" d="M96.8,52.88v6.41H94.52V52.88H92.24v-2h6.84v2Z"/><path class="cls-2" d="M102.56,56.3l-3.12-5.4h2.64l1.68,3.21,1.68-3.21H108l-3.12,5.4v3h-2.28Z"/></svg>