<svg id="Layer_1" data-name="Layer 1" xmlns="http://www.w3.org/2000/svg" viewBox="0 0 235.93 110.52"><defs><style>.cls-1{fill:#17984a;}.cls-2{fill:#fff;}</style></defs><rect class="cls-1" x="63.43" y="43.83" width="130.77" height="28.74"/><polygon class="cls-1" points="59.55 72.57 59.55 43.83 38.59 58.2 59.55 72.57"/><path class="cls-2" d="M85,61.25a4.11,4.11,0,0,1-3.43,1.56,4.25,4.25,0,0,1-4.4-4.29,4.36,4.36,0,0,1,4.47-4.35,4,4,0,0,1,3.3,1.4L83.21,57a1.93,1.93,0,0,0-1.64-.77,2.22,2.22,0,0,0,0,4.44,2.1,2.1,0,0,0,1.77-.9Z"/><path class="cls-2" d="M91.32,59.39h-3v3.3H86v-8.4h2.28v3.06h3V54.29H93.6v8.4H91.32Z"/><path class="cls-2" d="M95.29,54.29h3.87a2.84,2.84,0,0,1,3.14,2.82,2.7,2.7,0,0,1-1.61,2.55l2,3H100L98.38,60h-.82v2.7H95.29Zm2.27,1.92v2h1.32a1,1,0,1,0,0-2Z"/><path class="cls-2" d="M107.8,54.17a4.25,4.25,0,0,1,4.4,4.28,4.36,4.36,0,0,1-4.47,4.36,4.26,4.26,0,0,1-4.41-4.29A4.37,4.37,0,0,1,107.8,54.17Zm0,6.54a2.22,2.22,0,1,0-2.16-2.22A2.13,2.13,0,0,0,107.76,60.71Z"/><path class="cls-2" d="M115.72,58.12v4.57h-2.19v-8.4h2.33l2.22,4.39,2.22-4.39h2.22v8.4h-2.19V58.12l-1.71,3.37h-1.2Z"/><path class="cls-2" d="M124.2,62.69v-8.4h6.36v2h-4.08v1.2H130v1.86h-3.48v1.38h4.2v2Z"/><path class="cls-2" d="M140.79,59.39h-3v3.3h-2.28v-8.4h2.28v3.06h3V54.29h2.27v8.4h-2.27Z"/><path class="cls-2" d="M148.86,54.17a4.25,4.25,0,0,1,4.4,4.28,4.36,4.36,0,0,1-4.47,4.36,4.25,4.25,0,0,1-4.4-4.29A4.36,4.36,0,0,1,148.86,54.17Zm0,6.54a2.22,2.22,0,1,0-2.16-2.22A2.13,2.13,0,0,0,148.83,60.71Z"/><path class="cls-2" d="M154.59,54.29h3.87a2.84,2.84,0,0,1,3.14,2.82,2.71,2.71,0,0,1-1.6,2.55l2,3h-2.63L157.68,60h-.81v2.7h-2.28Zm2.28,1.92v2h1.32a1,1,0,1,0,0-2Z"/><path class="cls-2" d="M166.42,57.54c1.1.48,2.32,1.24,2.32,2.65s-1.27,2.62-3.15,2.62a4.6,4.6,0,0,1-3.32-1.32l1.32-1.44a3.46,3.46,0,0,0,2.1.92c.42,0,.72-.21.72-.53s-.34-.68-1.75-1.29a2.68,2.68,0,0,1-1.91-2.48c0-1.46,1.21-2.5,3-2.5a4.32,4.32,0,0,1,3,1.14l-1.31,1.44a2.48,2.48,0,0,0-1.62-.74c-.47,0-.72.22-.72.48S165.33,57.07,166.42,57.54Z"/><path class="cls-2" d="M170.07,62.69v-8.4h6.35v2h-4.07v1.2h3.48v1.86h-3.48v1.38h4.19v2Z"/></svg>