<svg id="Layer_1" data-name="Layer 1" xmlns="http://www.w3.org/2000/svg" viewBox="0 0 235.93 110.52"><defs><style>.cls-1{fill:#91489b;}.cls-2{fill:#fff;}</style></defs><rect class="cls-1" x="67.97" y="40.89" width="108.83" height="28.74" transform="translate(244.78 110.52) rotate(180)"/><path class="cls-2" d="M85.92,52.82v6.42H83.64V52.82H81.37v-2H88.2v2Z"/><path class="cls-2" d="M94.44,55.94h-3v3.3H89.17v-8.4h2.27V53.9h3V50.84h2.28v8.4H94.44Z"/><path class="cls-2" d="M98.41,59.24v-8.4h6.35v2h-4.08V54h3.48v1.86h-3.48v1.38h4.2v2Z"/><path class="cls-2" d="M113.82,50.72a4.25,4.25,0,0,1,4.4,4.28,4.37,4.37,0,0,1-4.47,4.36,4.25,4.25,0,0,1-4.4-4.29A4.36,4.36,0,0,1,113.82,50.72Zm0,6.54A2.22,2.22,0,1,0,111.63,55,2.13,2.13,0,0,0,113.79,57.26Z"/><path class="cls-2" d="M119.55,59.24v-8.4h2.28V57.2h3.84v2Z"/><path class="cls-2" d="M127.47,56.24l-3.12-5.4H127l1.68,3.21,1.68-3.21h2.51l-3.11,5.4v3h-2.28Z"/><path class="cls-2" d="M135.9,54.67v4.57h-2.19v-8.4h2.34l2.22,4.39,2.22-4.39h2.21v8.4h-2.19V54.67L138.81,58h-1.2Z"/><path class="cls-2" d="M144.39,50.84h3.75c2,0,3.26,1.18,3.26,2.94a3,3,0,0,1-3.33,3h-1.4v2.46h-2.28Zm2.28,4.08h1.26a1.09,1.09,0,1,0,0-2.16h-1.26Z"/><path class="cls-2" d="M152.73,50.84h2.34v8.4h-2.34Z"/><path class="cls-2" d="M164.28,57.8a4.11,4.11,0,0,1-3.43,1.56,4.25,4.25,0,0,1-4.4-4.29,4.36,4.36,0,0,1,4.47-4.35,4,4,0,0,1,3.3,1.4l-1.69,1.47a1.93,1.93,0,0,0-1.64-.77,2.22,2.22,0,0,0,0,4.44,2.1,2.1,0,0,0,1.77-.9Z"/><polygon class="cls-1" points="181.69 40.89 181.69 69.63 202.65 55.26 181.69 40.89"/></svg>